<svg width="536" height="254" fill="none" xmlns="http://www.w3.org/2000/svg"><g clip-path="url(#a)" opacity=".35"><rect x=".283" y=".039" width="227.645" height="209.578" rx="14.454" fill="#F3F1F0"/><path d="M.283 14.492C.283 6.509 6.754.038 14.737.038h198.738c7.982 0 14.453 6.471 14.453 14.454v21.68H.283v-21.68Z" fill="#DADADA"/><circle cx="25.577" cy="18.106" r="7.227" fill="#C4C4C4"/><path fill="#DADADA" d="M25.577 61.467h75.882v14.454H25.577zM47.258 97.601h133.696v14.454H47.258zM47.258 133.734h133.696v14.454H47.258z"/><path fill="#FAB15A" d="M.283 180.709h227.645v28.907H.283z"/></g><g clip-path="url(#b)" opacity=".5"><rect x="308.071" y=".039" width="227.645" height="209.578" rx="14.454" fill="#F3F1F0"/><path d="M308.071 14.493c0-7.983 6.471-14.454 14.454-14.454h198.738c7.982 0 14.454 6.471 14.454 14.454v21.68H308.071v-21.68Z" fill="#DADADA"/><circle cx="333.366" cy="18.107" r="7.227" fill="#C4C4C4"/><path fill="#DADADA" d="M333.366 61.468h75.882v14.454h-75.882zM355.047 97.602h133.696v14.454H355.047zM355.047 133.737h133.696v14.454H355.047z"/><path fill="#FFB45B" d="M308.072 180.712h227.645v28.907H308.072z"/></g><g clip-path="url(#c)"><rect x="127.084" y="44.383" width="227.645" height="209.578" rx="14.454" fill="#F3F1F0"/><path d="M127.084 58.837c0-7.983 6.471-14.454 14.454-14.454h198.738c7.982 0 14.453 6.47 14.453 14.453v21.681H127.084v-21.68Z" fill="#DADADA"/><circle cx="152.377" cy="62.45" r="7.227" fill="#C4C4C4"/><path fill="#DADADA" d="M152.377 105.812h75.882v14.454h-75.882zM174.058 141.945h133.696v14.454H174.058zM174.058 178.081h133.696v14.454H174.058z"/><path fill="#FFB45B" d="M127.083 225.056h227.645v28.907H127.083z"/></g><defs><clipPath id="a"><rect x=".283" y=".039" width="227.645" height="209.578" rx="14.454" fill="#fff"/></clipPath><clipPath id="b"><rect x="308.071" y=".039" width="227.645" height="209.578" rx="14.454" fill="#fff"/></clipPath><clipPath id="c"><rect x="127.084" y="44.383" width="227.645" height="209.578" rx="14.454" fill="#fff"/></clipPath></defs></svg>