<svg width="680" height="564" fill="none" xmlns="http://www.w3.org/2000/svg"><g opacity=".35" filter="url(#a)"><g clip-path="url(#b)"><rect x="72.283" y="155.039" width="227.645" height="209.578" rx="14.454" fill="#F3F1F0"/><path d="M72.283 169.492c0-7.983 6.471-14.454 14.454-14.454h198.738c7.982 0 14.453 6.471 14.453 14.454v21.68H72.283v-21.68Z" fill="#DADADA"/><circle cx="97.577" cy="173.106" r="7.227" fill="#C4C4C4"/><path fill="#DADADA" d="M97.577 216.467h75.882v14.454H97.577zM119.258 252.601h133.696v14.454H119.258zM119.258 288.734h133.696v14.454H119.258z"/><path fill="#FAB15A" d="M72.283 335.709h227.645v28.907H72.283z"/></g></g><g opacity=".5" filter="url(#c)"><g clip-path="url(#d)"><rect x="380.071" y="155.039" width="227.645" height="209.578" rx="14.454" fill="#F3F1F0"/><path d="M380.071 169.493c0-7.983 6.471-14.454 14.454-14.454h198.738c7.982 0 14.454 6.471 14.454 14.454v21.68H380.071v-21.68Z" fill="#DADADA"/><circle cx="405.366" cy="173.107" r="7.227" fill="#C4C4C4"/><path fill="#DADADA" d="M405.366 216.468h75.882v14.454h-75.882zM427.047 252.602h133.696v14.454H427.047zM427.047 288.737h133.696v14.454H427.047z"/><path fill="#FFB45B" d="M380.072 335.712h227.645v28.907H380.072z"/></g></g><g filter="url(#e)"><g clip-path="url(#f)"><rect x="199.084" y="199.383" width="227.645" height="209.578" rx="14.454" fill="#F3F1F0"/><path d="M199.084 213.836c0-7.982 6.471-14.453 14.454-14.453h198.738c7.982 0 14.453 6.471 14.453 14.453v21.681H199.084v-21.681Z" fill="#DADADA"/><circle cx="224.377" cy="217.45" r="7.227" fill="#C4C4C4"/><path fill="#DADADA" d="M224.377 260.812h75.882v14.454h-75.882zM246.058 296.945h133.696v14.454H246.058zM246.058 333.081h133.696v14.454H246.058z"/><path fill="#FFB45B" d="M199.083 380.056h227.645v28.907H199.083z"/></g></g><defs><clipPath id="b"><rect x="72.283" y="155.039" width="227.645" height="209.578" rx="14.454" fill="#fff"/></clipPath><clipPath id="d"><rect x="380.071" y="155.039" width="227.645" height="209.578" rx="14.454" fill="#fff"/></clipPath><clipPath id="f"><rect x="199.084" y="199.383" width="227.645" height="209.578" rx="14.454" fill="#fff"/></clipPath><filter id="a" x=".015" y="100.838" width="372.182" height="354.115" filterUnits="userSpaceOnUse" color-interpolation-filters="sRGB"><feFlood flood-opacity="0" result="BackgroundImageFix"/><feColorMatrix in="SourceAlpha" values="0 0 0 0 0 0 0 0 0 0 0 0 0 0 0 0 0 0 127 0" result="hardAlpha"/><feOffset dy="18.067"/><feGaussianBlur stdDeviation="36.134"/><feColorMatrix values="0 0 0 0 0 0 0 0 0 0 0 0 0 0 0 0 0 0 0.12 0"/><feBlend in2="BackgroundImageFix" result="effect1_dropShadow"/><feColorMatrix in="SourceAlpha" values="0 0 0 0 0 0 0 0 0 0 0 0 0 0 0 0 0 0 127 0" result="hardAlpha"/><feOffset dy="7.227"/><feGaussianBlur stdDeviation="9.034"/><feColorMatrix values="0 0 0 0 0 0 0 0 0 0 0 0 0 0 0 0 0 0 0.08 0"/><feBlend in2="effect1_dropShadow" result="effect2_dropShadow"/><feBlend in="SourceGraphic" in2="effect2_dropShadow" result="shape"/></filter><filter id="c" x="307.803" y="100.838" width="372.182" height="354.115" filterUnits="userSpaceOnUse" color-interpolation-filters="sRGB"><feFlood flood-opacity="0" result="BackgroundImageFix"/><feColorMatrix in="SourceAlpha" values="0 0 0 0 0 0 0 0 0 0 0 0 0 0 0 0 0 0 127 0" result="hardAlpha"/><feOffset dy="18.067"/><feGaussianBlur stdDeviation="36.134"/><feColorMatrix values="0 0 0 0 0 0 0 0 0 0 0 0 0 0 0 0 0 0 0.12 0"/><feBlend in2="BackgroundImageFix" result="effect1_dropShadow"/><feColorMatrix in="SourceAlpha" values="0 0 0 0 0 0 0 0 0 0 0 0 0 0 0 0 0 0 127 0" result="hardAlpha"/><feOffset dy="7.227"/><feGaussianBlur stdDeviation="9.034"/><feColorMatrix values="0 0 0 0 0 0 0 0 0 0 0 0 0 0 0 0 0 0 0.08 0"/><feBlend in2="effect1_dropShadow" result="effect2_dropShadow"/><feBlend in="SourceGraphic" in2="effect2_dropShadow" result="shape"/></filter><filter id="e" x="126.816" y="145.182" width="372.182" height="354.115" filterUnits="userSpaceOnUse" color-interpolation-filters="sRGB"><feFlood flood-opacity="0" result="BackgroundImageFix"/><feColorMatrix in="SourceAlpha" values="0 0 0 0 0 0 0 0 0 0 0 0 0 0 0 0 0 0 127 0" result="hardAlpha"/><feOffset dy="18.067"/><feGaussianBlur stdDeviation="36.134"/><feColorMatrix values="0 0 0 0 0 0 0 0 0 0 0 0 0 0 0 0 0 0 0.12 0"/><feBlend in2="BackgroundImageFix" result="effect1_dropShadow"/><feColorMatrix in="SourceAlpha" values="0 0 0 0 0 0 0 0 0 0 0 0 0 0 0 0 0 0 127 0" result="hardAlpha"/><feOffset dy="7.227"/><feGaussianBlur stdDeviation="9.034"/><feColorMatrix values="0 0 0 0 0 0 0 0 0 0 0 0 0 0 0 0 0 0 0.08 0"/><feBlend in2="effect1_dropShadow" result="effect2_dropShadow"/><feBlend in="SourceGraphic" in2="effect2_dropShadow" result="shape"/></filter></defs></svg>