<svg width="80" height="57" fill="none" xmlns="http://www.w3.org/2000/svg"><g filter="url(#a)"><path fill-rule="evenodd" clip-rule="evenodd" d="M69.67 19.884a11.457 11.457 0 0 1 7.145 10.623c0 6.317-5.131 11.461-11.46 11.461H26.384c-6.343 0-11.46-5.131-11.46-11.46 0-4.702 2.841-8.754 6.904-10.519a16.297 16.297 0 0 1-.027-.943C21.8 10.184 28.985 3 37.846 3c5.99 0 11.212 3.281 13.969 8.144a12.557 12.557 0 0 1 5.516-1.267c6.071 0 11.14 4.291 12.338 10.007Z" fill="url(#b)"/></g><g filter="url(#c)"><path fill-rule="evenodd" clip-rule="evenodd" d="M54.246 29.289a11.457 11.457 0 0 1 7.145 10.623c0 6.317-5.13 11.462-11.46 11.462H10.96C4.617 51.374-.5 46.242-.5 39.912c0-4.7 2.842-8.752 6.904-10.518a16.291 16.291 0 0 1-.027-.943c0-8.862 7.184-16.046 16.046-16.046 5.989 0 11.211 3.282 13.968 8.144a12.557 12.557 0 0 1 5.516-1.267c6.071 0 11.14 4.292 12.339 10.007Z" fill="#F9F9F9"/></g><defs><filter id="a" x="11.217" y=".776" width="69.305" height="46.382" filterUnits="userSpaceOnUse" color-interpolation-filters="sRGB"><feFlood flood-opacity="0" result="BackgroundImageFix"/><feColorMatrix in="SourceAlpha" values="0 0 0 0 0 0 0 0 0 0 0 0 0 0 0 0 0 0 127 0" result="hardAlpha"/><feOffset dy="1.483"/><feGaussianBlur stdDeviation="1.853"/><feComposite in2="hardAlpha" operator="out"/><feColorMatrix values="0 0 0 0 0 0 0 0 0 0 0 0 0 0 0 0 0 0 0.25 0"/><feBlend in2="BackgroundImageFix" result="effect1_dropShadow"/><feBlend in="SourceGraphic" in2="effect1_dropShadow" result="shape"/></filter><filter id="c" x="-4.207" y="10.181" width="69.305" height="46.382" filterUnits="userSpaceOnUse" color-interpolation-filters="sRGB"><feFlood flood-opacity="0" result="BackgroundImageFix"/><feColorMatrix in="SourceAlpha" values="0 0 0 0 0 0 0 0 0 0 0 0 0 0 0 0 0 0 127 0" result="hardAlpha"/><feOffset dy="1.483"/><feGaussianBlur stdDeviation="1.853"/><feComposite in2="hardAlpha" operator="out"/><feColorMatrix values="0 0 0 0 0 0 0 0 0 0 0 0 0 0 0 0 0 0 0.25 0"/><feBlend in2="BackgroundImageFix" result="effect1_dropShadow"/><feBlend in="SourceGraphic" in2="effect1_dropShadow" result="shape"/></filter><linearGradient id="b" x1="23.821" y1="8.602" x2="48.767" y2="51.708" gradientUnits="userSpaceOnUse"><stop stop-color="#FFAD33"/><stop offset="1" stop-color="#FF8A00"/></linearGradient></defs></svg>